<?xml version="1.0" standalone="no"?>
<!DOCTYPE svg PUBLIC "-//W3C//DTD SVG 20010904//EN"
 "http://www.w3.org/TR/2001/REC-SVG-20010904/DTD/svg10.dtd">
<svg version="1.0" xmlns="http://www.w3.org/2000/svg"
 width="700.000000pt" height="700.000000pt" viewBox="0 0 700.000000 700.000000"
 preserveAspectRatio="xMidYMid meet">
<metadata>
Created by potrace 1.14, written by Peter Selinger 2001-2017
</metadata>
<g transform="translate(0.000000,700.000000) scale(0.100000,-0.100000)"
fill="#000000" stroke="none">
<path d="M3285 6994 c-353 -29 -637 -86 -935 -190 -657 -227 -1232 -650 -1659
-1218 -361 -481 -591 -1061 -667 -1686 -25 -199 -25 -599 -1 -800 122 -1005
646 -1884 1472 -2467 645 -455 1472 -684 2251 -623 588 46 1117 218 1603 520
783 486 1355 1286 1560 2181 241 1056 -7 2136 -688 2989 -95 119 -305 335
-430 444 -531 461 -1182 748 -1886 832 -125 15 -517 26 -620 18z m-1515 -3304
l0 -1490 705 0 705 0 -2 -267 -3 -268 -1032 -3 -1033 -2 0 1760 0 1760 330 0
330 0 0 -1490z m3256 1479 c726 -71 1124 -464 1124 -1113 0 -534 -263 -903
-763 -1071 -200 -67 -365 -85 -772 -85 l-315 0 0 -620 0 -620 -330 0 -330 0 0
1760 0 1760 638 0 c377 0 683 -4 748 -11z"/>
<path d="M4300 4040 l0 -632 328 5 c371 6 416 12 549 77 189 93 285 238 314
472 20 163 -13 334 -87 446 -75 114 -168 179 -329 228 -89 28 -93 28 -432 32
l-343 4 0 -632z"/>
</g>
</svg>
